<svg width="14" height="14" viewBox="0 0 14 14" fill="none" xmlns="http://www.w3.org/2000/svg">
<g clip-path="url(#clip0_53_2)">
<path d="M3.46442 2.05025C3.27689 1.86272 3.02253 1.75736 2.75732 1.75736C2.4921 1.75736 2.23775 1.86272 2.05021 2.05025C1.86267 2.23779 1.75732 2.49214 1.75732 2.75736C1.75732 3.02258 1.86267 3.27693 2.05021 3.46447L5.58575 7L2.05021 10.5355C1.86267 10.7231 1.75732 10.9774 1.75732 11.2426C1.75732 11.5079 1.86267 11.7622 2.05021 11.9497C2.23775 12.1373 2.4921 12.2426 2.75732 12.2426C3.02253 12.2426 3.27689 12.1373 3.46442 11.9497L6.99996 8.41421L10.5355 11.9497C10.723 12.1373 10.9774 12.2426 11.2426 12.2426C11.5078 12.2426 11.7622 12.1373 11.9497 11.9497C12.1372 11.7622 12.2426 11.5079 12.2426 11.2426C12.2426 10.9774 12.1372 10.7231 11.9497 10.5355L8.41417 7L11.9497 3.46447C12.1372 3.27693 12.2426 3.02258 12.2426 2.75736C12.2426 2.49214 12.1372 2.23779 11.9497 2.05025C11.7622 1.86272 11.5078 1.75736 11.2426 1.75736C10.9774 1.75736 10.723 1.86272 10.5355 2.05025L6.99996 5.58579L3.46442 2.05025Z" fill="white"/>
</g>
<defs>
<clipPath id="clip0_53_2">
<rect width="14" height="14" fill="white"/>
</clipPath>
</defs>
</svg>
