<svg xmlns="http://www.w3.org/2000/svg" width="25" height="26" fill="none"><path fill="#A12232" d="M10.256 1.725h4.259c.18.008.362.01.541.042.53.082 1.035.317 1.445.663a2.96 2.96 0 0 1 1.037 2.046c.022.474.006.949.006 1.423 1.227 0 2.454.005 3.68-.006.226.002.45-.003.676.003a.88.88 0 0 1 .68.35.9.9 0 0 1 .153.726.87.87 0 0 1-.758.675c-.308.007-.616.015-.924.004-1.317-.008-2.633.01-3.95.005-.533-.003-1.067.006-1.6-.007-1.434.002-2.868-.001-4.302.002-.908.011-1.816.002-2.724.005-.875-.003-1.75.007-2.625-.007-.759.003-1.517-.004-2.276.004-.29-.003-.606.045-.87-.106a.88.88 0 0 1-.454-.85.88.88 0 0 1 .536-.735c.185-.08.392-.07.59-.063h4.08c.008-.341-.016-.682 0-1.024.005-.149-.006-.299.01-.447a2.962 2.962 0 0 1 2.337-2.635c.15-.036.302-.044.453-.068m-.242 1.832a1.22 1.22 0 0 0-.765.841c-.057.221-.035.451-.042.677v.818c2.194-.002 4.389.005 6.583-.003-.004-.163-.001-.326-.002-.49-.004-.3.026-.601-.015-.9a1.22 1.22 0 0 0-.8-.948c-.207-.074-.43-.072-.647-.071h-3.75c-.19.003-.383.007-.562.076"/><path fill="#A12232" d="m4.332 7.625 1.756-.001q.002 6.575 0 13.15c-.006.216-.009.432.004.648.029.453.34.87.763 1.031.18.075.377.09.57.09H17.45c.216.001.439.003.645-.071.465-.152.804-.61.817-1.098V7.75q0-.063-.002-.126h1.76c-.003 4.242 0 8.483-.001 12.725-.005.428.021.857-.014 1.285a2.96 2.96 0 0 1-1.292 2.157 2.97 2.97 0 0 1-1.688.503c-3.291-.003-6.583 0-9.875-.001-.401.01-.809.017-1.201-.08a2.96 2.96 0 0 1-2.267-2.763z"/><path fill="#A12232" d="M10.264 11.091a.9.9 0 0 1 .491.054.87.87 0 0 1 .519.602c.032.149.031.302.023.453v1.85c-.004.484.01.966.005 1.45.005.925-.009 1.85-.006 2.775a.881.881 0 0 1-1.736.128c-.025-.133-.02-.27-.02-.404v-2.4c-.004-.55.01-1.1.006-1.65.004-.55-.01-1.098-.006-1.648.006-.225-.026-.46.064-.673a.88.88 0 0 1 .66-.537M14.413 11.094a.884.884 0 0 1 .954.463.8.8 0 0 1 .09.418v6.3a.865.865 0 0 1-.666.786.872.872 0 0 1-1.085-.862v-1.526c.005-.558-.01-1.117-.006-1.675-.003-1.016.012-2.032.006-3.048-.012-.406.31-.786.707-.856"/></svg>