<svg xmlns="http://www.w3.org/2000/svg" width="25" height="26" fill="none"><path fill="#fff" d="m10.053 1.523 4.249-.297c.18-.004.362-.014.542.004a2.97 2.97 0 0 1 1.488.561 2.96 2.96 0 0 1 1.177 1.969c.055.471.072.946.106 1.42 1.224-.087 2.448-.167 3.67-.263.225-.014.45-.035.674-.045a.88.88 0 0 1 .704.302.9.9 0 0 1 .203.714c-.05.36-.35.67-.71.726-.306.029-.613.058-.92.068-1.315.084-2.627.193-3.941.28-.532.035-1.064.082-1.597.106-1.43.101-2.86.198-4.29.301-.906.075-1.812.129-2.718.195-.873.058-1.745.13-2.62.177-.756.055-1.513.102-2.27.162-.29.018-.6.087-.875-.045a.88.88 0 0 1-.512-.815c0-.321.196-.63.483-.771.18-.094.386-.098.584-.104l4.072-.285c-.017-.341-.064-.68-.073-1.021-.005-.15-.026-.298-.02-.448a2.962 2.962 0 0 1 2.148-2.792c.145-.045.297-.064.446-.099M9.94 3.368a1.22 1.22 0 0 0-.704.893c-.042.224-.003.452.005.678l.057.816c2.19-.155 4.379-.302 6.567-.462-.015-.163-.024-.326-.036-.489-.025-.299-.016-.602-.078-.897a1.22 1.22 0 0 0-.864-.89c-.212-.059-.434-.041-.65-.026l-3.742.262c-.188.016-.381.034-.555.115"/><path fill="#fff" d="M4.328 7.626q.878-.001 1.756-.001.002 6.575 0 13.15c-.006.216-.009.432.004.648.029.453.34.87.763 1.031.18.075.377.09.57.09h10.026c.217.001.439.003.645-.071.465-.152.804-.61.818-1.098V7.75l-.003-.126h1.76c-.003 4.242 0 8.483-.001 12.725-.005.428.021.857-.014 1.285a2.96 2.96 0 0 1-1.292 2.157 2.97 2.97 0 0 1-1.688.503c-3.291-.003-6.583 0-9.875-.001-.401.01-.809.017-1.2-.08a2.96 2.96 0 0 1-2.268-2.763z"/><path fill="#fff" d="M10.26 11.092a.9.9 0 0 1 .491.054.87.87 0 0 1 .519.602c.032.149.031.302.023.453v1.85c-.004.484.01.966.006 1.45.004.925-.01 1.85-.007 2.775a.881.881 0 0 1-1.736.128c-.025-.133-.02-.27-.02-.404v-2.4c-.004-.55.01-1.1.006-1.65.004-.55-.01-1.098-.006-1.648.006-.225-.026-.46.064-.673a.88.88 0 0 1 .66-.537M14.413 11.095a.884.884 0 0 1 .954.463.8.8 0 0 1 .09.418v6.3a.865.865 0 0 1-.666.786.871.871 0 0 1-1.085-.862v-1.526c.005-.558-.01-1.117-.006-1.675-.003-1.016.012-2.032.006-3.048-.012-.406.31-.786.707-.856"/></svg>